<?xml version="1.0" encoding="UTF-8"?>
<!DOCTYPE svg PUBLIC "-//W3C//DTD SVG 1.1//EN" "http://www.w3.org/Graphics/SVG/1.1/DTD/svg11.dtd">
<svg xmlns="http://www.w3.org/2000/svg" version="1.1" width="128px" height="128px" style="shape-rendering:geometricPrecision; text-rendering:geometricPrecision; image-rendering:optimizeQuality; fill-rule:evenodd; clip-rule:evenodd" xmlns:xlink="http://www.w3.org/1999/xlink">
<g><path style="opacity:0.999" fill="#322e4b" d="M 11.5,-0.5 C 45.8333,-0.5 80.1667,-0.5 114.5,-0.5C 121.167,1.5 125.5,5.83333 127.5,12.5C 127.5,46.5 127.5,80.5 127.5,114.5C 125.5,121.167 121.167,125.5 114.5,127.5C 80.1667,127.5 45.8333,127.5 11.5,127.5C 5.83333,125.167 1.83333,121.167 -0.5,115.5C -0.5,81.1667 -0.5,46.8333 -0.5,12.5C 1.43416,6.23347 5.43416,1.90014 11.5,-0.5 Z"/></g>
<g><path style="opacity:1" fill="#bcdaf3" d="M 87.5,57.5 C 82.1368,56.6786 76.8035,56.6786 71.5,57.5C 70.5232,68.1147 70.1899,78.7814 70.5,89.5C 69.3382,72.3382 69.1715,55.0049 70,37.5C 75.5906,34.8031 81.4239,32.8031 87.5,31.5C 87.5,40.1667 87.5,48.8333 87.5,57.5 Z"/></g>
<g><path style="opacity:1" fill="#bdfbfd" d="M 110.5,57.5 C 106.878,57.678 103.544,57.0114 100.5,55.5C 100.851,52.3331 99.1848,50.3331 95.5,49.5C 94.9003,47.4244 94.567,45.4244 94.5,43.5C 95.848,40.9866 97.848,39.1532 100.5,38C 100.167,37.6667 99.8333,37.3333 99.5,37C 100.381,36.2917 101.047,35.4584 101.5,34.5C 104.285,32.9049 107.285,31.9049 110.5,31.5C 110.5,40.1667 110.5,48.8333 110.5,57.5 Z"/></g>
<g><path style="opacity:1" fill="#d9cdfe" d="M 36.5,56.5 C 29.4984,57.7669 22.8318,59.1002 16.5,60.5C 16.5,50.8333 16.5,41.1667 16.5,31.5C 22.9105,33.5348 29.2439,35.8681 35.5,38.5C 36.4959,44.4632 36.8293,50.4632 36.5,56.5 Z"/></g>
<g><path style="opacity:1" fill="#c6c6f2" d="M 56.5,89.5 C 56.5,82.5 56.5,75.5 56.5,68.5C 56.5,66.1667 56.5,63.8333 56.5,61.5C 56.5,58.5 56.5,55.5 56.5,52.5C 50.8828,54.1481 45.2162,55.4814 39.5,56.5C 39.5,48.1667 39.5,39.8333 39.5,31.5C 45.4267,33.1979 51.2601,35.1979 57,37.5C 57.8285,55.0049 57.6618,72.3382 56.5,89.5 Z"/></g>
<g><path style="opacity:1" fill="#c5f3fc" d="M 101.5,34.5 C 101.047,35.4584 100.381,36.2917 99.5,37C 99.8333,37.3333 100.167,37.6667 100.5,38C 97.848,39.1532 95.848,40.9866 94.5,43.5C 94.567,45.4244 94.9003,47.4244 95.5,49.5C 99.1848,50.3331 100.851,52.3331 100.5,55.5C 99.7321,56.2625 99.2321,57.2625 99,58.5C 96.2809,57.5562 93.4475,57.2229 90.5,57.5C 90.3338,51.1579 90.5005,44.8246 91,38.5C 94.3406,36.7463 97.8406,35.4129 101.5,34.5 Z"/></g>
<g><path style="opacity:1" fill="#dfdffd" d="M 56.5,61.5 C 51.2138,62.8486 45.5472,63.8486 39.5,64.5C 39.5,61.8333 39.5,59.1667 39.5,56.5C 45.2162,55.4814 50.8828,54.1481 56.5,52.5C 56.5,55.5 56.5,58.5 56.5,61.5 Z"/></g>
<g><path style="opacity:1" fill="#e6dffe" d="M 36.5,56.5 C 36.5,59.1667 36.5,61.8333 36.5,64.5C 29.8647,65.8239 23.1981,67.1572 16.5,68.5C 16.5,65.8333 16.5,63.1667 16.5,60.5C 22.8318,59.1002 29.4984,57.7669 36.5,56.5 Z"/></g>
<g><path style="opacity:1" fill="#efeefc" d="M 56.5,61.5 C 56.5,63.8333 56.5,66.1667 56.5,68.5C 50.6842,69.7322 45.0176,70.3988 39.5,70.5C 39.5,68.5 39.5,66.5 39.5,64.5C 45.5472,63.8486 51.2138,62.8486 56.5,61.5 Z"/></g>
<g><path style="opacity:1" fill="#e9fafb" d="M 100.5,55.5 C 103.544,57.0114 106.878,57.678 110.5,57.5C 110.5,62.1667 110.5,66.8333 110.5,71.5C 108.53,70.8384 106.53,70.1717 104.5,69.5C 99.741,70.3498 95.0744,70.3498 90.5,69.5C 90.5,65.5 90.5,61.5 90.5,57.5C 93.4475,57.2229 96.2809,57.5562 99,58.5C 99.2321,57.2625 99.7321,56.2625 100.5,55.5 Z"/></g>
<g><path style="opacity:1" fill="#6d6c84" d="M 62.5,30.5 C 62.5,39.5 62.5,48.5 62.5,57.5C 62.1676,70.1842 62.5009,82.8508 63.5,95.5C 64.4991,82.5171 64.8325,69.5171 64.5,56.5C 64.5,47.8333 64.5,39.1667 64.5,30.5C 65.4974,52.327 65.8307,74.327 65.5,96.5C 64.1667,96.5 62.8333,96.5 61.5,96.5C 61.1693,74.327 61.5026,52.327 62.5,30.5 Z"/></g>
<g><path style="opacity:1" fill="#c8d5fd" d="M 62.5,30.5 C 63.1667,30.5 63.8333,30.5 64.5,30.5C 64.5,39.1667 64.5,47.8333 64.5,56.5C 63.8333,56.8333 63.1667,57.1667 62.5,57.5C 62.5,48.5 62.5,39.5 62.5,30.5 Z"/></g>
<g><path style="opacity:1" fill="#f9f8fa" d="M 56.5,68.5 C 56.5,75.5 56.5,82.5 56.5,89.5C 51.0474,91.8745 45.3807,93.8745 39.5,95.5C 39.5,87.1667 39.5,78.8333 39.5,70.5C 45.0176,70.3988 50.6842,69.7322 56.5,68.5 Z"/></g>
<g><path style="opacity:1" fill="#f6f7fb" d="M 64.5,56.5 C 64.8325,69.5171 64.4991,82.5171 63.5,95.5C 62.5009,82.8508 62.1676,70.1842 62.5,57.5C 63.1667,57.1667 63.8333,56.8333 64.5,56.5 Z"/></g>
<g><path style="opacity:1" fill="#f5f7fa" d="M 87.5,57.5 C 87.5,70.1667 87.5,82.8333 87.5,95.5C 81.4852,94.2742 75.8185,92.2742 70.5,89.5C 70.1899,78.7814 70.5232,68.1147 71.5,57.5C 76.8035,56.6786 82.1368,56.6786 87.5,57.5 Z"/></g>
<g><path style="opacity:1" fill="#f8f9f9" d="M 90.5,69.5 C 95.0744,70.3498 99.741,70.3498 104.5,69.5C 106.53,70.1717 108.53,70.8384 110.5,71.5C 110.5,79.5 110.5,87.5 110.5,95.5C 103.828,93.6649 97.3284,91.3315 91,88.5C 90.5005,82.1754 90.3338,75.8421 90.5,69.5 Z"/></g>
<g><path style="opacity:1" fill="#f7f7fa" d="M 36.5,64.5 C 36.831,72.5277 36.4977,80.5277 35.5,88.5C 29.2439,91.1319 22.9105,93.4652 16.5,95.5C 16.5,86.5 16.5,77.5 16.5,68.5C 23.1981,67.1572 29.8647,65.8239 36.5,64.5 Z"/></g>
</svg>
